<svg xmlns="http://www.w3.org/2000/svg" width="167.9" height="27.5" viewBox="-221 383.5 167.9 27.5" enable-background="new -221 383.5 167.9 27.5"><path d="M-221 384.3h27.7v5.8h-9.5v20.1h-8.7v-20.1h-9.5v-5.8zm30.3 0h20.7c6.4 0 8.7 2.9 8.7 7.2 0 3.5-1.8 5.3-4.1 5.9v.1c1.6.5 2.9 1.9 3.1 4.6.4 5.1.5 6.8 1.6 8.1h-9.5c-.5-1.1-.5-2.7-.5-3.8 0-4.1-1.3-4.8-3.5-4.8h-7.9v8.6h-8.6v-25.9zm8.6 11.5h8.3c2.1 0 3.2-1.1 3.2-2.9 0-1.7-1.1-2.8-3.2-2.8h-8.3v5.7zm24.4-11.5h8.6v25.9h-8.6v-25.9zm11.3 0h27.7v5.8h-9.5v20.1h-8.6v-20.1h-9.5v-5.8h-.1zm44.3-.8c9.2 0 16.9 3 16.9 13.8s-7.7 13.8-16.9 13.8-16.9-3-16.9-13.8c.1-10.8 7.8-13.8 16.9-13.8zm0 21.7c4.6 0 7.7-2.5 7.7-8 0-5.4-3.1-8-7.7-8s-7.7 2.5-7.7 8 3.1 8 7.7 8zm18.6-20.9h10l12 16.2h.1v-16.2h8.4v25.9h-9.6L-75 393.9h-.1v16.4h-8.4v-26z"/></svg>